<svg xmlns="http://www.w3.org/2000/svg" viewBox="0 0 480.25 497.96"><defs><style>.cls-1{fill:#28235d;}</style></defs><g id="Layer_2" data-name="Layer 2"><g id="Layer_1-2" data-name="Layer 1"><path class="cls-1" d="M480.25,147.75c-2.63,1.23-5.31,2.38-7.89,3.72-5.7,3-11.43,5.89-17,9.14-1.43.84-3.11,2.82-3.12,4.28-.18,25.67-.13,51.35-.1,77a12.92,12.92,0,0,0,.49,2.1c4,0,8.06.05,12.14,0,2.27,0,4.56-.26,4.57,3,0,12.46,0,24.92,0,39-6.33-4.25-11.89-7.42-16.76-11.42-4.17-3.44-7.44-4.34-12-.73-5.38,4.23-11.35,7.73-18.28,12.37,0-7.62,0-13.69,0-19.77s0-12,0-18c0-2.88.11-4.51,4.12-3.88s8.23-.42,12.67-.75c.11-1.71.29-3.17.29-4.62,0-21,0-42-.05-63,0-1.7-.74-3.39-1.14-5.09a32,32,0,0,0-5.31,1.74C419.17,180,405.53,187.4,391,195.2a43.89,43.89,0,0,1-1-6.22q-.06-8.49.27-17c.21-5.64-5.12-5.79-8.08-7.47a290.29,290.29,0,0,0-55.61-24.38c-18.73-5.94-37.74-10.64-57.42-12.59-17.76-1.76-35.49-2.68-53.24-.8-10,1-19.93,2.87-29.87,4.46C162.37,135,140,143.15,117.9,152.28c-8.65,3.57-17.06,7.79-25.34,12.16-1.69.89-2.94,3.67-3.3,5.77-.55,3.2-.14,6.56-.14,11.33L0,137.13c9.23-5.52,17.15-10.35,25.15-15q30.57-17.91,61.2-35.72c19.85-11.55,39.76-23,59.57-34.59,16.91-9.9,33.73-19.94,50.59-29.91,11.48-6.8,23-13.51,34.43-20.42,3.05-1.85,5.51-2,8.67-.08q30.31,18.54,60.83,36.76c14.31,8.57,28.73,17,43,25.54,19.63,11.78,39.19,23.67,58.79,35.5.7.41,1.53.6,2.25,1,3.05,1.63,6.18,4.69,9.09,4.5,2.37-.16,4.35-4.36,6.74-6.51,6.28-5.61,13.49-5.82,20.83-2.69,6.52,2.78,9.71,8.1,10,15.21.17,4.64,0,9.37.91,13.87a11.71,11.71,0,0,0,4.48,6.87c7.7,5.09,15.77,9.6,23.71,14.34Zm-55.88.42c1.45,1.7,3.62,4.93,6.5,7.3,1.1.92,4.29.56,5.7-.41a34.23,34.23,0,0,0,7.41-7.21,7.42,7.42,0,0,0,1.37-5.49c-1.18-5.16-6.64-8.37-11.75-7.45C428.19,135.89,424.1,140.85,424.37,148.17Zm13.76-28.23c2.12-4.91,1-8.46-1.72-11.36s-6-1.52-8.08,1c-.81.94-.61,4.16.29,4.86C431.36,116.56,434.66,118,438.13,119.94Z"/><path class="cls-1" d="M376.37,234.28c-8.37-2-15.66-4-23-5.47-14-2.84-28-5.71-42.14-8-12.54-2-25.18-3.6-37.83-4.75-11.25-1-22.58-1.7-33.87-1.64-24.26.15-48.54.29-72.75,1.56-15.5.8-30.89,3.6-46.33,5.51-3.29.41-6.59.71-9.86,1.26-4,.68-5.36-1.13-5.35-4.91.06-15-.16-30,.18-45A10.06,10.06,0,0,1,109.2,166c20.57-14.93,44.24-22.14,68.76-27.25a290.54,290.54,0,0,1,68.77-5.82c40.21,1.29,79,9,115.32,27.06.44.22.81.62,1.26.79,10.12,3.85,14.28,10.29,13.39,21.87C375.4,199.36,376.37,216.24,376.37,234.28Z"/><path class="cls-1" d="M257.09,292.11c0,1.75,0,3.5,0,5.25q.53,44,1.06,87.94c0,3.34-.11,6.68.11,10s-1.31,4.38-4.42,4.33c-8.11-.12-16.24,0-24.35-.28-1.16,0-2.88-1.91-3.21-3.22-.52-2,0-4.29,0-6.46,0-45.67.06-91.35-.1-137,0-4.64,1.12-6,5.88-5.71,10.29.58,20.62.53,30.94.55a6.35,6.35,0,0,1,6.32,3.71c10,18.19,20.33,36.19,30.15,54.47,7.17,13.33,13.74,27,20.58,40.51.26.53.6,1,1.39,2.34a18.09,18.09,0,0,0,.76-3.39q-.89-31.15-1.85-62.33c-.31-10.46-.7-20.92-.67-31.38,0-1.41,2.24-4,3.55-4,8.77-.46,17.57-.48,26.36-.36.87,0,2.21,1.78,2.46,2.93a28.93,28.93,0,0,1,.13,6q.06,68.52.14,137c0,6.83,0,6.67-7,6.49-7.49-.19-15.05-.59-22.48.13-6.21.61-9-2.44-11.53-7.16-7.37-13.81-14.89-27.53-22.35-41.29-6.57-12.12-13.3-24.15-19.63-36.39-3.88-7.49-7.12-15.3-10.65-23Z"/><path class="cls-1" d="M73.44,247.58H108.1v5.72c0,27.5-.33,55,.2,82.48.15,7.59,2.31,15.29,4.48,22.66,3.17,10.8,16.59,17.37,28.1,14.63,13.14-3.13,19-13.57,20.23-24.47a254.13,254.13,0,0,0,1.34-27.88c.16-22.49,0-45,0-67.48,0-6,.4-6.29,6.11-6.24,9.28.08,18.55,0,28.3,0,.2,2.55.56,5,.56,7.43-.07,29.16.18,58.33-.42,87.48-.38,18.11-6,34.58-20.41,46.68-8.46,7.13-18.49,10.94-29.6,12.3s-22.14,1.45-33.05-1.37c-20.45-5.29-32.7-18.79-37.5-39a114.6,114.6,0,0,1-3.1-24.54c-.43-27.65-.27-55.31-.3-83C73,251.29,73.29,249.5,73.44,247.58Z"/><path class="cls-1" d="M381.33,247.49h22.23c1.16,0,2.33,0,3.49,0,9.14-.12,9.14-.12,9.14,9.41v136c0,6.94,0,6.76-6.86,6.59-8.12-.2-16.25-.15-24.36,0-3.45.08-5.2-.5-3.82-4.47.52-1.5.19-3.3.19-5q0-67.74,0-135.47Z"/><path class="cls-1" d="M365.06,496.43c-6.84,1.53-11.44.36-14.8-6.41-5.12-10.31-11.46-20-17.93-31.11v37.25a6.73,6.73,0,0,1-1.45.62c-8.62.16-8.62.16-8.62-8.52,0-13.31.11-26.63-.09-39.94-.06-4,1.24-5.06,5.31-5.66,9.35-1.38,10.5,6.39,13.78,11.45,4.9,7.55,9.11,15.54,14.52,23.15v-34.2h9.28Z"/><path class="cls-1" d="M220.25,496.74c0-17.08-.1-33.54.17-50,0-1.32,2.52-3.7,3.88-3.71a221.85,221.85,0,0,1,22.78.86c11,1.06,16.83,8.47,18.64,18.37,1.5,8.24.84,16.61-4.38,24.22-4.38,6.41-10.7,9.11-17.48,10C236.29,497.52,228.47,496.74,220.25,496.74Zm9.9-28.23-.28,0c.29,5.63.35,11.3,1,16.89.15,1.29,2.32,3.19,3.72,3.34a18.16,18.16,0,0,0,19.28-11.89c5.18-14.32-3.69-26.8-18.5-26.12-3.55.16-5.6,1.18-5.31,5.27S230.15,464.35,230.15,468.51Z"/><path class="cls-1" d="M163.22,443.14c13-.59,10.62-2.11,10.94,9.65.24,9.29.24,18.6,1,27.85.42,5.14,4.22,8,8.86,8.25a9.39,9.39,0,0,0,10.12-7.61,51.55,51.55,0,0,0,1.08-10.83c.16-8.66.07-17.33.1-26a6.58,6.58,0,0,1,.39-1.32l9.34-.54c.35,3,1.05,6.08,1,9.13-.16,9-.57,17.92-.95,26.88C204.61,489.8,198,496,190,497.36c-10.59,1.84-20.31-.19-24.75-11.27a42.48,42.48,0,0,1-1.93-8.66,28,28,0,0,1-.1-4.49Z"/><path class="cls-1" d="M308.18,473.64c-5.29,0-10.26.25-15.19-.08-3.61-.24-4.85,1.31-4.86,4.53a47.82,47.82,0,0,0,.12,5.49c.32,3,1.61,4.67,5.13,4.41,4.64-.34,9.34.07,14-.14,3.78-.16,3.79,2.08,3.86,4.82s-.54,4.24-3.84,4.19c-8.82-.11-17.65.22-26.47.09-1.05,0-3-1.81-3-2.77,0-16.8.31-33.6.54-50.4,0-.12.21-.25.57-.64h29.81c.28,1.89,1,3.76.65,5.39-.28,1.24-1.88,3-3,3.11a125.35,125.35,0,0,1-14,.11c-3.18-.11-4.43,1-4.44,4.3,0,7.23.73,8.27,7.76,8.53,2.49.09,5-.1,7.49-.14,3.58-.05,6.41.55,4.88,5.3C307.93,470.64,308.18,471.72,308.18,473.64Z"/><path class="cls-1" d="M73.52,486c3.38.94,6.48,2.17,9.68,2.6,2.56.34,5.67.45,7.75-.73s4.23-4.27,3.92-6.11c-.41-2.44-2.81-5.08-5.07-6.54-3.54-2.3-7.84-3.42-11.52-5.54-5.32-3.07-7.26-8.21-6.39-14,.85-5.65,3.69-9.71,9.68-11.9a28.74,28.74,0,0,1,19.84-.08c2.93,1,3,2.42,2,4.89-.87,2.1-.75,4.73-4.42,3.62a35.16,35.16,0,0,0-8.24-1.31c-3.88-.21-7.08,1.47-7.91,5.39-.8,3.75,2.2,5.5,5.12,6.9,3.27,1.56,6.57,3.07,9.86,4.59,6.61,3,8.83,8.47,8.34,15.38-.45,6.31-3.89,10.35-9.56,12.74-7.23,3.05-14.6,2.48-21.87.38C70.12,494.9,69.92,492.48,73.52,486Z"/><path class="cls-1" d="M128.23,451.83H113.52c-.17-1.85-.31-3.44-.44-5-.26-3,1-4,4.09-4,10.82.1,21.64,0,32.46-.2,3.31-.05,4.82,1.06,4.76,4.61-.06,3.36-1.06,4.89-4.65,4.59-3.29-.28-6.61-.06-10.6-.06v11.58c0,9.83-.16,19.66.06,29.48.12,5.1-3.27,3.77-6.07,4-3.1.29-5-.06-5-4,.2-11.65.06-23.31.06-35Z"/><path class="cls-1" d="M375.47,451.77v-8.86h24.58c3.67,0,7.33,0,11-.08,2.77-.05,5.3-.39,5.26,3.87,0,3.89-1.32,5.44-5.26,5.13-3.29-.27-6.63-.06-10.52-.06-.13,2.08-.36,3.83-.34,5.59.15,12,.35,23.94.51,35.92,0,2.85-1,4.06-4.25,3.77-6.38-.58-6.27-.35-6.23-6.87.06-11.33-.17-22.66,0-34,0-3.54-1.22-4.75-4.67-4.48C382.37,452,379.21,451.77,375.47,451.77Z"/></g></g></svg>