<svg xmlns="http://www.w3.org/2000/svg" viewBox="0 0 647.07 279.76"><defs><style>.cls-1{fill:#e42427;}.cls-2{fill:#fefefe;}.cls-3{fill:#252422;}</style></defs><g id="Layer_2" data-name="Layer 2"><g id="Layer_1-2" data-name="Layer 1"><path class="cls-1" d="M620.59,139.88c0,77.24-138.93,139.88-310.28,139.88S0,217.12,0,139.88,138.93,0,310.31,0,620.59,62.63,620.59,139.88Z"/><path class="cls-2" d="M371.77,153.73c32.15-4.79,39.34-25.72,37.36-43.23-2.47-21.38-22.22-34-37.36-31.35Zm.76,14.61c1.29,16.29,2.66,34.21,4.07,52.28H329.15V81.39A25.11,25.11,0,0,0,299.2,105.1c-.8,19.25-.38,38.58-.15,57.84.34,29.49-22.83,49.92-46.42,53a462.1,462.1,0,0,1-59.86,3.58c-24.47.08-48.93-1.48-73.86-2.4V64.19H222.22c-2.36,4.46-4.79,8.07-6.24,12.07-2.59,7.07-7.11,2.43-10.42,1.9-14-2.32-27.25.61-40.64,6.32v52.77c10.27-8.6,19.59-16.36,28.92-24.12,8.48,10.54,17,21.12,25.64,31.92q-15.57,12.67-31,25.19c-7.34-8.1-14.76-16.28-23.29-25.72v56.62c20.51,2.63,41.21,4.23,61.88.38,13-2.39,21.53-12.74,22.45-26.29,1-13.85,1-27.74,1.86-41.59.76-11.46,1-23.1,3.62-34.17,5-21.65,19.63-31.59,40.22-33.64,23.25-2.36,46.8-2.13,70.24-2a374,374,0,0,1,44.71,3.43c19.75,2.58,37.06,20.85,38.47,39.34,1.87,24.85-9.63,45-31.24,51.75C403.54,162.71,389,164.76,372.53,168.34Z"/><path class="cls-2" d="M511.68,66.29V220.62h-47.1c.64-6.88,1.78-13.92,1.82-21q.28-53.65,0-107.31c0-7.46-1.48-14.95-1.25-22.37,0-2.17,3.76-6.05,5.74-6C484.44,64.27,498,65.41,511.68,66.29Z"/><polygon class="cls-3" points="620.85 50.53 615.68 50.53 615.68 48.59 628.27 48.59 628.27 50.53 623.06 50.53 623.06 66.29 620.85 66.29 620.85 50.53"/><path class="cls-3" d="M644.52,58.52c-.15-2.47-.3-5.44-.26-7.64h-.08c-.57,2-1.29,4.3-2.13,6.73l-3,8.56h-1.67l-2.78-8.41c-.8-2.51-1.48-4.79-1.94-6.88h-.08c0,2.2-.15,5.17-.3,7.83l-.46,7.58h-2.09l1.18-17.7h2.78l2.93,8.56c.68,2.17,1.29,4.11,1.71,5.94h.08c.41-1.75,1-3.69,1.78-5.94l3.05-8.56H646l1.06,17.7h-2.13Z"/></g></g></svg>